<svg width="170" height="170" viewBox="0 0 170 170" fill="none" xmlns="http://www.w3.org/2000/svg">
<circle cx="85" cy="85" r="85" fill="#292929"/>
<g filter="url(#filter0_dd_2_62)">
<path d="M99.128 84.5691C99.128 90.0305 98.7867 94.7238 98.104 98.6491C97.5067 102.574 96.0133 105.774 93.624 108.249C91.2347 110.724 87.48 112.558 82.36 113.753C77.24 114.862 70.2 115.417 61.24 115.417C53.9013 115.417 47.8427 115.076 43.064 114.393C38.3707 113.625 34.7013 112.473 32.056 110.937C29.496 109.401 27.6187 107.481 26.424 105.177C25.2293 102.788 24.504 100.014 24.248 96.8571C24.0773 93.6998 23.992 90.1158 23.992 86.1051V67.2891C23.992 64.2171 24.0773 61.9131 24.248 60.3771C24.4187 58.7558 25.144 57.6891 26.424 57.1771C27.7893 56.5798 30.0507 56.2811 33.208 56.2811H49.208V90.2011C49.208 93.6998 49.592 96.2598 50.36 97.8811C51.2133 99.5025 52.536 100.569 54.328 101.081C56.2053 101.593 58.552 101.849 61.368 101.849C65.976 101.849 69.2187 101.038 71.096 99.4171C72.9733 97.7105 73.912 94.6811 73.912 90.3291V56.2811H89.656C92.8987 56.2811 95.16 56.5798 96.44 57.1771C97.8053 57.6891 98.5733 58.7558 98.744 60.3771C99 61.9131 99.128 64.2171 99.128 67.2891V84.5691Z" fill="#945252"/>
</g>
<g filter="url(#filter1_f_2_62)">
<path d="M80.3169 69.9286C80.8004 67.1889 82.6921 64.9068 85.2947 63.9237V63.9237C87.9579 62.9176 90.886 64.5484 91.433 67.3422L93.8071 79.4674C93.9344 80.1178 93.9312 80.7872 93.7975 81.4364L91.5729 92.2409C90.9766 95.137 87.785 96.6683 85.1529 95.3212V95.3212C82.5607 93.9945 80.6185 91.6718 79.7717 88.8857L78.4871 84.6593C78.1669 83.6057 78.0997 82.4914 78.2911 81.407L80.3169 69.9286Z" fill="#9E3B3B"/>
</g>
<g filter="url(#filter2_f_2_62)">
<path d="M28 78C28 74.6863 30.6863 72 34 72H47C47.5523 72 48 72.4477 48 73V96.2308V110.462L41.9971 110.923C34.4467 111.504 28 105.534 28 97.9616V78Z" fill="#954A4A"/>
</g>
<path d="M102.178 46.0308C102.389 46.8769 101.909 47.7253 101.105 47.9257C100.301 48.1262 99.4783 47.6027 99.2674 46.7566C99.0564 45.9105 99.0914 43.2747 99.8952 43.0743C100.699 42.8739 101.967 45.1847 102.178 46.0308Z" fill="#396C82"/>
<path d="M98.0491 40.1852C98.3212 40.4873 98.3218 40.9301 98.0507 41.1743C97.7795 41.4185 97.3392 41.3715 97.0672 41.0694C96.7951 40.7673 96.2198 39.6863 96.491 39.4421C96.7622 39.1979 97.7771 39.8831 98.0491 40.1852Z" fill="#396C82"/>
<path d="M110.2 91.4C110.2 93.5333 110.2 95.8 110.2 98.2C110.2 100.6 110.067 102.6 109.8 104.2C109 108.6 107.133 112 104.2 114.4C101.4 116.8 98.0667 118.533 94.2 119.6C90.4667 120.533 86.7333 121.067 83 121.2C78.4667 121.467 74.4667 121.533 71 121.4C67.5333 121.4 64.0667 121.267 60.6 121C57.1333 120.6 53.1333 120.267 48.6 120V97.2C50.3333 97.8667 52.8 98.6 56 99.4C59.2 100.2 61.8667 100.6 64 100.6C66.6667 100.6 68.4667 99.8 69.4 98.2C70.3333 96.6 70.8 94.6 70.8 92.2V29H97.4C101.933 29 105.067 29.5333 106.8 30.6C108.667 31.6667 109.667 33.2667 109.8 35.4C110.067 37.5333 110.2 40.1333 110.2 43.2V91.4Z" fill="#225D76" fill-opacity="0.65"/>
<g filter="url(#filter3_d_2_62)">
<g filter="url(#filter4_b_2_62)">
<path d="M94.119 115.889C94.119 128.786 81.6739 139.242 66.322 139.242C50.9701 139.242 69.6312 128.786 69.6312 115.889C69.6312 102.991 50.9701 92.5355 66.322 92.5355C81.6739 92.5355 94.119 102.991 94.119 115.889Z" fill="#BB8C8C" fill-opacity="0.96"/>
<path d="M89.3832 112.471C89.3832 119.077 85.0042 124.432 79.6024 124.432C74.2005 124.432 80.7667 119.077 80.7667 112.471C80.7667 105.865 74.2005 100.51 79.6024 100.51C85.0042 100.51 89.3832 105.865 89.3832 112.471Z" fill="#945252"/>
</g>
</g>
<g filter="url(#filter5_d_2_62)">
<path d="M101.47 117.768C101.951 117.561 102.494 117.551 102.982 117.74L107.74 119.581C108.216 119.765 108.603 120.124 108.823 120.584L112.321 127.903C112.956 129.23 111.988 130.765 110.517 130.765H95.0137C93.5837 130.765 92.6157 129.308 93.1701 127.99L96.2732 120.611C96.4738 120.134 96.8515 119.753 97.327 119.549L101.47 117.768Z" fill="#D97AA7" fill-opacity="0.6"/>
<path d="M94.0817 134.388C94.0817 133.135 95.2207 132.191 96.452 132.423L107.855 134.571L109.39 135.03C111.576 135.684 111.138 138.9 108.857 138.946L96.1218 139.201C95.0018 139.223 94.0817 138.321 94.0817 137.201V134.388Z" fill="#D97AA7" fill-opacity="0.6"/>
<path d="M100 122.75C100 122.349 100.347 122.037 100.746 122.08L104.32 122.463C105.844 122.626 107 123.913 107 125.446V127.25C107 127.651 106.653 127.963 106.254 127.92L102.68 127.537C101.156 127.374 100 126.087 100 124.554V122.75Z" fill="#612642"/>
</g>
<g filter="url(#filter6_d_2_62)">
<path d="M122.063 133.09C122.063 139.459 131.2 139.241 124.379 139.241C117.557 139.241 116.659 134.078 116.659 127.709C116.659 121.34 107.88 118.483 114.701 118.483C121.523 118.483 122.063 126.721 122.063 133.09Z" fill="#5C9389"/>
<path d="M122.054 133.259C122.054 138.168 127.61 137.999 123.462 137.999C119.315 137.999 118.768 134.02 118.768 129.111C118.768 124.202 113.431 122 117.578 122C121.726 122 122.054 128.35 122.054 133.259Z" fill="#1A574C"/>
<path d="M138.4 110.306C138.4 123.044 138.4 135.397 127.36 139.241C121.532 139.241 134.563 133.527 134.563 120.789C134.563 108.051 139.287 97.7252 145.115 97.7252C150.943 97.7252 138.4 97.5677 138.4 110.306Z" fill="#5C9389"/>
<g filter="url(#filter7_bif_2_62)">
<path d="M150.958 96.5002C150.958 98.157 149.657 100 148 100C146.343 100 145.171 99.6572 145.171 98.0004C145.171 96.3435 145.843 95.5 147.5 95.5C148 94.9998 150.958 94.8433 150.958 96.5002Z" fill="#D9D9D9"/>
</g>
</g>
<g filter="url(#filter8_d_2_62)">
<path d="M59 115.5C59 119.226 52.3175 122.493 47.9351 122.493C43.5527 122.493 38.5 117.226 38.5 113.5C38.5 109.774 44.6176 108 49 108C53.3824 108 59 111.774 59 115.5Z" fill="#4F8C81" fill-opacity="0.91" shape-rendering="crispEdges"/>
<path d="M59 115.5C59 119.226 52.3175 122.493 47.9351 122.493C43.5527 122.493 38.5 117.226 38.5 113.5C38.5 109.774 44.6176 108 49 108C53.3824 108 59 111.774 59 115.5Z" fill="#4F8C81" fill-opacity="0.91" shape-rendering="crispEdges"/>
</g>
<path d="M57 116.175C57 118.746 52.1104 121 48.9037 121C45.6971 121 42 117.366 42 114.795C42 112.224 46.4763 111 49.6829 111C52.8896 111 57 113.604 57 116.175Z" fill="#4F8C81" fill-opacity="0.91"/>
<path d="M57 116.175C57 118.746 52.1104 121 48.9037 121C45.6971 121 42 117.366 42 114.795C42 112.224 46.4763 111 49.6829 111C52.8896 111 57 113.604 57 116.175Z" fill="#38655D" fill-opacity="0.91"/>
<defs>
<filter id="filter0_dd_2_62" x="19.992" y="56.2811" width="83.136" height="67.136" filterUnits="userSpaceOnUse" color-interpolation-filters="sRGB">
<feFlood flood-opacity="0" result="BackgroundImageFix"/>
<feColorMatrix in="SourceAlpha" type="matrix" values="0 0 0 0 0 0 0 0 0 0 0 0 0 0 0 0 0 0 127 0" result="hardAlpha"/>
<feOffset dy="4"/>
<feGaussianBlur stdDeviation="2"/>
<feComposite in2="hardAlpha" operator="out"/>
<feColorMatrix type="matrix" values="0 0 0 0 0 0 0 0 0 0 0 0 0 0 0 0 0 0 0.25 0"/>
<feBlend mode="normal" in2="BackgroundImageFix" result="effect1_dropShadow_2_62"/>
<feColorMatrix in="SourceAlpha" type="matrix" values="0 0 0 0 0 0 0 0 0 0 0 0 0 0 0 0 0 0 127 0" result="hardAlpha"/>
<feOffset dy="4"/>
<feGaussianBlur stdDeviation="2"/>
<feComposite in2="hardAlpha" operator="out"/>
<feColorMatrix type="matrix" values="0 0 0 0 0 0 0 0 0 0 0 0 0 0 0 0 0 0 0.25 0"/>
<feBlend mode="normal" in2="effect1_dropShadow_2_62" result="effect2_dropShadow_2_62"/>
<feBlend mode="normal" in="SourceGraphic" in2="effect2_dropShadow_2_62" result="shape"/>
</filter>
<filter id="filter1_f_2_62" x="74.1846" y="59.6246" width="23.7156" height="40.1908" filterUnits="userSpaceOnUse" color-interpolation-filters="sRGB">
<feFlood flood-opacity="0" result="BackgroundImageFix"/>
<feBlend mode="normal" in="SourceGraphic" in2="BackgroundImageFix" result="shape"/>
<feGaussianBlur stdDeviation="2" result="effect1_foregroundBlur_2_62"/>
</filter>
<filter id="filter2_f_2_62" x="24" y="68" width="28" height="46.9624" filterUnits="userSpaceOnUse" color-interpolation-filters="sRGB">
<feFlood flood-opacity="0" result="BackgroundImageFix"/>
<feBlend mode="normal" in="SourceGraphic" in2="BackgroundImageFix" result="shape"/>
<feGaussianBlur stdDeviation="2" result="effect1_foregroundBlur_2_62"/>
</filter>
<filter id="filter3_d_2_62" x="56.2626" y="92.5355" width="41.8565" height="54.7062" filterUnits="userSpaceOnUse" color-interpolation-filters="sRGB">
<feFlood flood-opacity="0" result="BackgroundImageFix"/>
<feColorMatrix in="SourceAlpha" type="matrix" values="0 0 0 0 0 0 0 0 0 0 0 0 0 0 0 0 0 0 127 0" result="hardAlpha"/>
<feOffset dy="4"/>
<feGaussianBlur stdDeviation="2"/>
<feComposite in2="hardAlpha" operator="out"/>
<feColorMatrix type="matrix" values="0 0 0 0 0 0 0 0 0 0 0 0 0 0 0 0 0 0 0.25 0"/>
<feBlend mode="normal" in2="BackgroundImageFix" result="effect1_dropShadow_2_62"/>
<feBlend mode="normal" in="SourceGraphic" in2="effect1_dropShadow_2_62" result="shape"/>
</filter>
<filter id="filter4_b_2_62" x="56.2626" y="88.5355" width="41.8565" height="54.7062" filterUnits="userSpaceOnUse" color-interpolation-filters="sRGB">
<feFlood flood-opacity="0" result="BackgroundImageFix"/>
<feGaussianBlur in="BackgroundImageFix" stdDeviation="2"/>
<feComposite in2="SourceAlpha" operator="in" result="effect1_backgroundBlur_2_62"/>
<feBlend mode="normal" in="SourceGraphic" in2="effect1_backgroundBlur_2_62" result="shape"/>
</filter>
<filter id="filter5_d_2_62" x="89.0116" y="117.605" width="27.5078" height="29.596" filterUnits="userSpaceOnUse" color-interpolation-filters="sRGB">
<feFlood flood-opacity="0" result="BackgroundImageFix"/>
<feColorMatrix in="SourceAlpha" type="matrix" values="0 0 0 0 0 0 0 0 0 0 0 0 0 0 0 0 0 0 127 0" result="hardAlpha"/>
<feOffset dy="4"/>
<feGaussianBlur stdDeviation="2"/>
<feComposite in2="hardAlpha" operator="out"/>
<feColorMatrix type="matrix" values="0 0 0 0 0 0 0 0 0 0 0 0 0 0 0 0 0 0 0.25 0"/>
<feBlend mode="normal" in2="BackgroundImageFix" result="effect1_dropShadow_2_62"/>
<feBlend mode="normal" in="SourceGraphic" in2="effect1_dropShadow_2_62" result="shape"/>
</filter>
<filter id="filter6_d_2_62" x="108.105" y="95.1587" width="46.8532" height="52.083" filterUnits="userSpaceOnUse" color-interpolation-filters="sRGB">
<feFlood flood-opacity="0" result="BackgroundImageFix"/>
<feColorMatrix in="SourceAlpha" type="matrix" values="0 0 0 0 0 0 0 0 0 0 0 0 0 0 0 0 0 0 127 0" result="hardAlpha"/>
<feOffset dy="4"/>
<feGaussianBlur stdDeviation="2"/>
<feComposite in2="hardAlpha" operator="out"/>
<feColorMatrix type="matrix" values="0 0 0 0 0 0 0 0 0 0 0 0 0 0 0 0 0 0 0.25 0"/>
<feBlend mode="normal" in2="BackgroundImageFix" result="effect1_dropShadow_2_62"/>
<feBlend mode="normal" in="SourceGraphic" in2="effect1_dropShadow_2_62" result="shape"/>
</filter>
<filter id="filter7_bif_2_62" x="141.171" y="91.1587" width="13.7877" height="12.8413" filterUnits="userSpaceOnUse" color-interpolation-filters="sRGB">
<feFlood flood-opacity="0" result="BackgroundImageFix"/>
<feGaussianBlur in="BackgroundImageFix" stdDeviation="2"/>
<feComposite in2="SourceAlpha" operator="in" result="effect1_backgroundBlur_2_62"/>
<feBlend mode="normal" in="SourceGraphic" in2="effect1_backgroundBlur_2_62" result="shape"/>
<feColorMatrix in="SourceAlpha" type="matrix" values="0 0 0 0 0 0 0 0 0 0 0 0 0 0 0 0 0 0 127 0" result="hardAlpha"/>
<feOffset dy="4"/>
<feGaussianBlur stdDeviation="2"/>
<feComposite in2="hardAlpha" operator="arithmetic" k2="-1" k3="1"/>
<feColorMatrix type="matrix" values="0 0 0 0 0 0 0 0 0 0 0 0 0 0 0 0 0 0 0.25 0"/>
<feBlend mode="normal" in2="shape" result="effect2_innerShadow_2_62"/>
<feGaussianBlur stdDeviation="2" result="effect3_foregroundBlur_2_62"/>
</filter>
<filter id="filter8_d_2_62" x="34.5" y="108" width="28.5" height="22.4929" filterUnits="userSpaceOnUse" color-interpolation-filters="sRGB">
<feFlood flood-opacity="0" result="BackgroundImageFix"/>
<feColorMatrix in="SourceAlpha" type="matrix" values="0 0 0 0 0 0 0 0 0 0 0 0 0 0 0 0 0 0 127 0" result="hardAlpha"/>
<feOffset dy="4"/>
<feGaussianBlur stdDeviation="2"/>
<feComposite in2="hardAlpha" operator="out"/>
<feColorMatrix type="matrix" values="0 0 0 0 0 0 0 0 0 0 0 0 0 0 0 0 0 0 0.25 0"/>
<feBlend mode="normal" in2="BackgroundImageFix" result="effect1_dropShadow_2_62"/>
<feBlend mode="normal" in="SourceGraphic" in2="effect1_dropShadow_2_62" result="shape"/>
</filter>
</defs>
</svg>
